<?xml version="1.0" encoding="UTF-8" standalone="no"?>
<svg
   xmlns:dc="http://purl.org/dc/elements/1.1/"
   xmlns:cc="http://creativecommons.org/ns#"
   xmlns:rdf="http://www.w3.org/1999/02/22-rdf-syntax-ns#"
   xmlns:svg="http://www.w3.org/2000/svg"
   xmlns="http://www.w3.org/2000/svg"
   width="300"
   height="84.82959"
   viewBox="0 0 79.375 22.444496"
   version="1.1"
   id="svg1929">
  <defs
     id="defs1923" />
  <metadata
     id="metadata1926">
    <rdf:RDF>
      <cc:Work
         rdf:about="">
        <dc:format>image/svg+xml</dc:format>
        <dc:type
           rdf:resource="http://purl.org/dc/dcmitype/StillImage" />
        <dc:title></dc:title>
      </cc:Work>
    </rdf:RDF>
  </metadata>
  <g
     id="layer1"
     transform="translate(-4.9136881,-54.545603)"
     style="fill:#0b3d5c;fill-opacity:1">
    <g
       id="g1266"
       transform="matrix(0.70691327,0,0,0.70691327,-67.850273,140.44629)"
       style="fill:#0b3d5c;fill-opacity:1">
      <path
         d="m 183.20088,-121.51517 v 31.749989 h 32.015 v -31.749989 z m 5.699,21.00299 h 1.669 v 4.256999 c 0,0.254 0.032,0.481 0.094,0.682 0.066,0.198 0.16,0.367 0.281,0.509 0.122,0.138 0.27,0.245 0.445,0.321 0.178,0.072 0.379,0.109 0.603,0.109 0.224,0 0.423,-0.037 0.597,-0.109 0.178,-0.076 0.328,-0.183 0.45,-0.321 a 1.38,1.38 0 0 0 0.276,-0.504 c 0.066,-0.2 0.099,-0.428 0.099,-0.681 v -4.262999 h 1.67 v 4.262999 c 0,0.44 -0.073,0.846 -0.218,1.215 a 2.695,2.695 0 0 1 -0.612,0.952 2.776,2.776 0 0 1 -0.974,0.623 3.54,3.54 0 0 1 -1.288,0.222 c -0.481,0 -0.912,-0.074 -1.294,-0.222 a 2.776,2.776 0 0 1 -0.973,-0.623 2.695,2.695 0 0 1 -0.613,-0.952 3.363,3.363 0 0 1 -0.212,-1.215 z m 7.275,0 h 0.88 c 0.072,0 0.133,0.004 0.182,0.01 0.05,0.007 0.094,0.02 0.134,0.04 0.04,0.016 0.077,0.04 0.113,0.074 0.037,0.033 0.077,0.077 0.123,0.133 l 3.418,4.321999 a 9.07,9.07 0 0 1 -0.039,-0.77 v -3.808999 h 1.472 v 7.196999 h -0.87 a 0.801,0.801 0 0 1 -0.326,-0.06 0.697,0.697 0 0 1 -0.256,-0.216 l -3.393,-4.287 a 12.068,12.068 0 0 1 0.034,0.706 v 3.857 h -1.472 v -7.195999 z m 7.467,0 h 2.34 c 0.52,0 0.964,0.054 1.33,0.163 0.368,0.106 0.667,0.254 0.898,0.444999 0.234,0.19 0.403,0.416 0.509,0.677 0.105,0.26 0.158,0.542 0.158,0.849 0,0.233 -0.032,0.454 -0.094,0.662 -0.063,0.207 -0.157,0.4 -0.282,0.577 a 2.11,2.11 0 0 1 -0.454,0.47 2.372,2.372 0 0 1 -0.618,0.34 c 0.112,0.057 0.217,0.126 0.312,0.208 0.099,0.082 0.184,0.183 0.257,0.301 l 1.53,2.504 h -1.51 c -0.28,0 -0.481,-0.105 -0.603,-0.316 l -1.195,-2.09 a 0.496,0.496 0 0 0 -0.188,-0.197 0.605,0.605 0 0 0 -0.296,-0.06 h -0.425 v 2.664 h -1.67 v -7.195999 z m 1.669,1.249999 v 2.133 h 0.672 c 0.227,0 0.42,-0.028 0.577,-0.084 0.162,-0.059 0.294,-0.14 0.396,-0.241 a 0.917,0.917 0 0 0 0.222,-0.357 c 0.046,-0.138 0.07,-0.286 0.07,-0.444 0,-0.316 -0.105,-0.563 -0.312,-0.74 -0.204,-0.178 -0.522,-0.267 -0.953,-0.267 z"
         id="path1244"
         style="fill:#0b3d5c;fill-opacity:1" />
      <g
         style="fill:#0b3d5c;fill-opacity:1"
         id="g1264"
         transform="matrix(0.20723731,0,0,0.20723731,181.77585,-112.04479)">
        <g
           style="fill:#0b3d5c;fill-opacity:1"
           id="g1262"
           transform="matrix(0.80644918,0,0,-0.80644918,-603.36722,609.11873)">
          <path
             d="m 582.647,811.9755 c 9.4133,0 17.0447,-7.6315 17.0447,-17.0448 0,-9.4133 -7.6314,-17.0438 -17.0447,-17.0438 -9.4133,0 -17.0448,7.6305 -17.0448,17.0438 0,9.4133 7.6315,17.0448 17.0448,17.0448"
             style="fill:#0b3d5c;fill-opacity:1;fill-rule:evenodd;stroke:none"
             id="path1246" />
          <path
             d="m 450.9825,700.7428 v 53.4447 h 29.1416 v -6.9242 h -21.3084 v -15.9344 h 21.3183 v -6.3087 h -21.3183 v -24.2774 z"
             style="fill:#0b3d5c;fill-opacity:1;fill-rule:evenodd;stroke:none"
             id="path1248" />
          <path
             d="m 522.5496,719.7452 7.3809,-1.7329 c -1.5438,-5.608 -4.3325,-9.8923 -8.3407,-12.8528 -4.0209,-2.9486 -8.9243,-4.4167 -14.7359,-4.4167 -6.0055,0 -10.8828,1.1311 -14.6446,3.3937 -3.7616,2.2745 -6.6285,5.5598 -8.587,9.8563 -1.9587,4.3081 -2.9449,8.9294 -2.9449,13.8637 0,5.379 1.1029,10.0726 3.3211,14.0803 2.2181,4.0073 5.3702,7.052 9.4688,9.134 4.0861,2.0818 8.5876,3.1167 13.5037,3.1167 5.5777,0 10.2606,-1.3116 14.061,-3.9469 3.8009,-2.6357 6.4468,-6.3304 7.9384,-11.1079 l -7.2507,-1.5885 c -1.2972,3.7667 -3.1652,6.4984 -5.6299,8.2193 -2.4514,1.7212 -5.5387,2.5756 -9.2744,2.5756 -4.2806,0 -7.848,-0.9508 -10.7277,-2.8522 -2.8795,-1.9137 -4.9031,-4.4649 -6.0577,-7.678 -1.1673,-3.2011 -1.7512,-6.5109 -1.7512,-9.9164 0,-4.4048 0.6877,-8.2315 2.0627,-11.5169 1.3879,-3.2734 3.528,-5.7285 6.4469,-7.353 2.9185,-1.6249 6.0707,-2.431 9.4688,-2.431 4.1253,0 7.6145,1.1072 10.4814,3.3094 2.8667,2.2141 4.7994,5.4998 5.811,9.8442"
             style="fill:#0b3d5c;fill-opacity:1;fill-rule:evenodd;stroke:none"
             id="path1250" />
          <path
             d="m 529.7417,700.7428 v 53.4447 h 32.3566 v -6.6367 h -23.8992 l -0.1508,-16.6431 h 23.6518 l 0.1508,-6.751 h -23.6518 v -16.1739 h 24.5376 v -7.24 z"
             style="fill:#0b3d5c;fill-opacity:1;fill-rule:evenodd;stroke:none"
             id="path1252" />
          <path
             d="m 565.6209,700.744 v 53.6085 h 7.8186 V 700.744 Z"
             style="fill:#0b3d5c;fill-opacity:1;fill-rule:evenodd;stroke:none"
             id="path1254" />
          <path
             d="m 574.395,700.7428 23.5148,53.4447 h 5.2237 l 24.4627,-53.2905 -9.4612,-0.1542 -6.4987,16.2358 h -23.2968 l -6.1098,-16.2358 z m 17.2786,22.631 h 16.7876 l -8.8625,19.7844 z"
             style="fill:#0b3d5c;fill-opacity:1;fill-rule:evenodd;stroke:none"
             id="path1256" />
          <path
             d="m 594.1803,743.5148 c 0.6834,-0.3305 1.0182,-0.7934 1.0182,-1.3944 0,-0.3968 -0.1639,-0.7333 -0.4986,-1.0037 -0.3342,-0.2701 -0.7762,-0.4025 -1.3312,-0.4025 -0.555,0 -1.3308,0.1202 -2.3201,0.3543 -0.9828,0.2466 -1.6801,0.3787 -2.079,0.4028 1.3028,-0.9255 1.9576,-2.0373 1.9576,-3.3293 0,-1.7251 -0.8614,-3.2454 -2.584,-4.5677 -1.7297,-1.3221 -3.7443,-1.9834 -6.0506,-1.9834 -2.2209,0 -4.1142,0.6431 -5.6591,1.9236 -1.5516,1.2798 -2.3275,2.8184 -2.3275,4.6275 0,1.4664 0.5122,2.7343 1.5304,3.8041 1.025,1.0698 2.5059,1.8332 4.4561,2.2898 -3.075,0.6911 -4.6128,1.9052 -4.6128,3.6423 0,1.328 0.7262,2.482 2.1713,3.4735 1.4448,0.9857 3.1533,1.4783 5.1319,1.4783 0.9184,0 2.1359,-0.1502 3.6663,-0.4445 1.5301,-0.2766 2.5625,-0.4209 3.0892,-0.4209 0.8756,0 1.6659,0.1865 2.3777,0.5652 l 0.3555,-0.4569 c -1.2099,-1.0576 -2.6479,-1.5869 -4.3206,-1.5869 -0.9326,0 -2.1215,0.2226 -3.5663,0.6673 -1.4451,0.457 -2.4772,0.6911 -3.1033,0.6911 -1.0183,0 -1.8582,-0.3302 -2.513,-0.9796 -0.6621,-0.6489 -0.9895,-1.4905 -0.9895,-2.5121 0,-1.0276 0.4059,-1.851 1.2172,-2.452 0.8115,-0.6069 1.9219,-0.9073 3.3247,-0.9073 0.7685,0 1.4732,0.0779 2.128,0.2281 l 0.1281,-0.5828 c -2.5625,-0.2707 -4.5127,-0.9737 -5.8513,-2.1095 -1.3453,-1.1421 -2.0145,-2.5903 -2.0145,-4.3512 0,-1.6529 0.6335,-3.005 1.8864,-4.0507 1.26,-1.046 2.7621,-1.5627 4.5204,-1.5627 1.6229,0 3.0107,0.4748 4.1638,1.4303 1.1605,0.9556 1.7371,2.1456 1.7371,3.57 0,1.076 -0.3061,1.9352 -0.9111,2.5784 -0.6049,0.6369 -1.4235,0.9555 -2.4698,0.9555 -0.8186,0 -1.4882,-0.1865 -2.0004,-0.5709 -0.5125,-0.3787 -0.7761,-0.8776 -0.7761,-1.4848 0,-0.4022 0.1423,-0.7151 0.4272,-0.9433 0.2846,-0.2285 0.6619,-0.3424 1.1177,-0.3424 0.5408,0 1.0176,0.1862 1.4164,0.5649 l 0.2563,-0.4929 c -0.6409,-1.0338 -1.4168,-1.5506 -2.3207,-1.5506 -0.6333,0 -1.1886,0.2044 -1.6444,0.625 -0.4626,0.4148 -0.6902,0.9315 -0.6902,1.5387 0,1.0817 0.5479,1.9531 1.6511,2.626 1.0968,0.6673 2.6269,1.004 4.5845,1.004 l 4.0504,-0.1805 c 1.4307,0 2.1425,0.3126 2.1425,0.9377 0,0.1624 -0.057,0.2945 -0.1851,0.4025 z"
             style="fill:#0b3d5c;fill-opacity:1;fill-rule:evenodd;stroke:none"
             id="path1258" />
          <path
             d="m 607.7432,775.7419 c 30.7072,-27.1006 104.2271,-99.0156 95.9973,-128.5832 -3.8486,-13.8271 -10.7235,-21.9195 -44.3773,-24.6736 -98.6343,-8.0748 -310.5788,86.1276 -382.9478,165.0214 62.0076,-43.9914 250.5543,-162.6885 384.0624,-147.2264 16.1708,1.8729 25.746,4.5428 25.7565,20.0557 -1.3584,24.0698 -62.6777,95.7302 -78.4911,115.4061"
             style="fill:#0b3d5c;fill-opacity:1;fill-rule:evenodd;stroke:none"
             id="path1260" />
        </g>
      </g>
    </g>
  </g>
</svg>
